<svg xmlns="http://www.w3.org/2000/svg" viewBox="0 0 64 64" fill="none">
  <rect width="64" height="64" rx="8" fill="#FF6600"/>
  <path d="M32 12C24.268 12 18 18.268 18 26v4c0 1.105.895 2 2 2h2v-6c0-5.523 4.477-10 10-10s10 4.477 10 10v6h2c1.105 0 2-.895 2-2v-4c0-7.732-6.268-14-14-14z" fill="#FFF"/>
  <path d="M24 32v6c0 2.209 1.791 4 4 4h8c2.209 0 4-1.791 4-4v-6H24z" fill="#FFF"/>
  <circle cx="28" cy="24" r="2" fill="#FF6600"/>
  <circle cx="36" cy="24" r="2" fill="#FF6600"/>
  <path d="M28 28h8c0 2.209-1.791 4-4 4s-4-1.791-4-4z" fill="#FF6600"/>
  <path d="M22 44l-2 8h4l2-8h-4zM38 44l2 8h4l-2-8h-4z" fill="#FFF"/>
</svg>
