<svg xmlns="http://www.w3.org/2000/svg" viewBox="0 0 48 48" fill="none">
  <path d="M34.6 33H12.4a7.4 7.4 0 0 1-.9-14.75 10.6 10.6 0 0 1 20.24-1.9A6.9 6.9 0 0 1 41 23a6.9 6.9 0 0 1-6.4 10Z" fill="#F6821F"/>
  <path d="M34.6 33H20V16.2a10.6 10.6 0 0 1 11.74.15A6.9 6.9 0 0 1 41 23a6.9 6.9 0 0 1-6.4 10Z" fill="#FBAD41"/>
  <g fill="#fff">
    <rect x="18" y="20" width="12" height="2.4" rx="1.2"/>
    <rect x="18" y="24.3" width="12" height="2.4" rx="1.2"/>
    <rect x="18" y="28.6" width="12" height="2.4" rx="1.2"/>
  </g>
</svg>
